<svg width="35" height="35" viewBox="0 0 35 35" fill="none" xmlns="http://www.w3.org/2000/svg">
  <circle cx="17.5" cy="17.5" r="17" stroke="#FF3B00" />
  <g clip-path="url(#clip0_325_590)">
    <path
      d="M16.7187 27C16.5311 27.001 16.3476 26.9446 16.1928 26.8385C16.0381 26.7324 15.9194 26.5816 15.8526 26.4063L14.3742 22.5617C14.3442 22.4842 14.2984 22.4139 14.2397 22.3552C14.1809 22.2964 14.1106 22.2506 14.0331 22.2207L10.1875 20.7411C10.0123 20.6739 9.86162 20.5551 9.75534 20.4005C9.64906 20.2459 9.59216 20.0626 9.59216 19.875C9.59216 19.6874 9.64906 19.5041 9.75534 19.3495C9.86162 19.1949 10.0123 19.0761 10.1875 19.0089L14.032 17.5304C14.1095 17.5005 14.1798 17.4547 14.2386 17.396C14.2973 17.3372 14.3431 17.2669 14.373 17.1894L15.8526 13.3438C15.9198 13.1686 16.0386 13.0179 16.1932 12.9116C16.3479 12.8053 16.5311 12.7484 16.7187 12.7484C16.9064 12.7484 17.0896 12.8053 17.2442 12.9116C17.3989 13.0179 17.5176 13.1686 17.5849 13.3438L19.0633 17.1883C19.0932 17.2658 19.139 17.3361 19.1978 17.3948C19.2565 17.4536 19.3269 17.4994 19.4043 17.5293L23.2266 19C23.4089 19.0675 23.566 19.1897 23.6764 19.3497C23.7868 19.5097 23.8452 19.6999 23.8437 19.8943C23.8409 20.0787 23.7828 20.2579 23.6769 20.4089C23.5711 20.5599 23.4223 20.6756 23.25 20.7411L19.4054 22.2196C19.328 22.2495 19.2576 22.2953 19.1989 22.354C19.1402 22.4128 19.0944 22.4831 19.0644 22.5606L17.5849 26.4063C17.5181 26.5816 17.3994 26.7324 17.2446 26.8385C17.0898 26.9446 16.9064 27.001 16.7187 27Z"
      fill="#FF3B00" />
    <path
      d="M12.2657 14.5314C12.1557 14.5314 12.0482 14.498 11.9576 14.4358C11.8669 14.3735 11.7972 14.2852 11.7576 14.1826L11.132 12.5557C11.1184 12.5201 11.0975 12.4878 11.0706 12.4609C11.0436 12.4339 11.0113 12.413 10.9758 12.3995L9.34888 11.7738C9.24623 11.7343 9.15796 11.6646 9.0957 11.5739C9.03345 11.4832 9.00012 11.3758 9.00012 11.2658C9.00012 11.1558 9.03345 11.0483 9.0957 10.9577C9.15796 10.867 9.24623 10.7973 9.34888 10.7577L10.9758 10.1321C11.0113 10.1184 11.0436 10.0975 11.0705 10.0706C11.0974 10.0437 11.1184 10.0114 11.132 9.97584L11.7521 8.36343C11.7871 8.26851 11.8472 8.18491 11.9261 8.12162C12.0051 8.05833 12.0997 8.01774 12.2 8.00422C12.3204 7.98958 12.4422 8.01555 12.5461 8.078C12.65 8.14046 12.7301 8.23582 12.7737 8.34896L13.3994 9.97584C13.413 10.0114 13.4339 10.0437 13.4609 10.0706C13.4878 10.0975 13.5201 10.1184 13.5556 10.1321L15.1825 10.7577C15.2851 10.7973 15.3734 10.867 15.4357 10.9577C15.4979 11.0483 15.5312 11.1558 15.5312 11.2658C15.5312 11.3758 15.4979 11.4832 15.4357 11.5739C15.3734 11.6646 15.2851 11.7343 15.1825 11.7738L13.5556 12.3995C13.52 12.413 13.4877 12.4339 13.4608 12.4609C13.4339 12.4878 13.4129 12.5201 13.3994 12.5557L12.7737 14.1826C12.7342 14.2852 12.6645 14.3735 12.5738 14.4358C12.4831 14.498 12.3757 14.5314 12.2657 14.5314Z"
      fill="#FF3B00" />
    <path
      d="M23.8438 17.5C23.7238 17.5 23.6066 17.4636 23.5077 17.3956C23.4088 17.3276 23.3328 17.2313 23.2897 17.1193L22.4421 14.9161C22.4272 14.8773 22.4043 14.842 22.3749 14.8126C22.3455 14.7832 22.3103 14.7603 22.2714 14.7454L20.0683 13.8978C19.9563 13.8547 19.8601 13.7786 19.7922 13.6797C19.7243 13.5808 19.688 13.4637 19.688 13.3438C19.688 13.2238 19.7243 13.1067 19.7922 13.0078C19.8601 12.9089 19.9563 12.8328 20.0683 12.7897L22.2714 11.9421C22.3103 11.9272 22.3455 11.9043 22.3749 11.8749C22.4043 11.8455 22.4272 11.8102 22.4421 11.7714L23.2834 9.58383C23.3218 9.48038 23.3875 9.38928 23.4736 9.32021C23.5597 9.25114 23.6628 9.20669 23.7721 9.19158C23.9035 9.17568 24.0364 9.20411 24.1497 9.27235C24.2631 9.34058 24.3504 9.44473 24.3978 9.56824L25.2454 11.7714C25.2603 11.8102 25.2832 11.8455 25.3126 11.8749C25.342 11.9043 25.3773 11.9272 25.4161 11.9421L27.6193 12.7897C27.7312 12.8328 27.8274 12.9089 27.8953 13.0078C27.9632 13.1067 27.9995 13.2238 27.9995 13.3438C27.9995 13.4637 27.9632 13.5808 27.8953 13.6797C27.8274 13.7786 27.7312 13.8547 27.6193 13.8978L25.4161 14.7454C25.3773 14.7603 25.342 14.7832 25.3126 14.8126C25.2832 14.842 25.2603 14.8773 25.2454 14.9161L24.3978 17.1193C24.3548 17.2313 24.2788 17.3276 24.1799 17.3956C24.081 17.4636 23.9638 17.5 23.8438 17.5Z"
      fill="#FF3B00" />
  </g>
  <defs>
    <clipPath id="clip0_325_590">
      <rect width="19" height="19" fill="white" transform="translate(9 8)" />
    </clipPath>
  </defs>
</svg>