<?xml version="1.0" encoding="utf-8"?>
<!-- Generator: Adobe Illustrator 28.4.1, SVG Export Plug-In . SVG Version: 6.00 Build 0)  -->
<svg version="1.1" id="Camada_2_00000026885444998592837620000014024860350730268854_"
	 xmlns="http://www.w3.org/2000/svg" xmlns:xlink="http://www.w3.org/1999/xlink" x="0px" y="0px" viewBox="0 0 140 140"
	 style="enable-background:new 0 0 140 140;" xml:space="preserve">
<style type="text/css">
	.st0{fill-rule:evenodd;clip-rule:evenodd;fill:currentColor;}
</style>
<g id="Layer_1">
	<g>
		<path class="st0" d="M113.1,17c-3.2-3.3-8.8-3.3-12,0L79.6,39.7c1.6,2.7,2.7,6,2.7,9.3c0,1.9-0.3,3.8-0.8,5.8l10.2,9.9l22.2-26.3
			C119,32.1,118.7,22.8,113.1,17L113.1,17L113.1,17z M53.7,78.4c-1.9,0-3.7-0.3-5.3-0.8c-1.6-0.6-2.7-1.1-4-1.9l-34,35.3
			c-1.3,1.1-2.1,2.5-2.1,4.4s0.8,3.8,2.1,5.2l4.3,4.4c1.3,1.4,3.2,2.2,5.1,2.2c1.9,0,3.7-0.8,5.1-2.2l34-37l0.3,0.3
			c1.9,1.9,4.3,2.7,6.7,2.7c1.9-0.3,3.7-0.8,5.1-1.9l-11-11.8C58,77.8,55.8,78.4,53.7,78.4L53.7,78.4z"/>
		<path class="st0" d="M31,24.4l-0.2,0.2c-1.1,1.1-1.1,2.7,0,3.8l17.9,18.4c1.6,1.7,1.6,4.1,0,5.8l-0.5,0.5
			c-0.8,0.5-1.9,1.1-2.9,1.1s-2.1-0.3-2.9-1.1L24.4,34.8c-0.5-0.5-1.1-0.8-1.9-0.8c-0.8,0-1.3,0.3-1.9,0.8l-0.5,0.5
			c-1.1,1.1-1.1,2.7,0,3.8l27,27.7c1.6,1.7,3.7,2.5,5.9,2.5s4.3-0.8,5.9-2.5l0.8-0.8l52.6,57.9c1.3,1.4,3.2,2.7,5.1,2.7
			c3.1,0,14.3-10.2,14.4-14.2c0-1.9-1.3-3.8-2.7-5.1L72.2,53.7l0.8-0.8c1.7-1.6,2.5-3.7,2.6-5.8s-0.8-4.3-2.4-5.9L46,13.7
			c-1.1-1.1-2.7-1.1-3.8-0.1l-0.6,0.5c-0.6,0.5-0.8,1.1-0.8,1.9s0.2,1.3,0.8,1.9l18,18.2c0.8,0.8,1.1,1.9,1,3c0,1.1-0.6,2.1-1.2,2.9
			l-0.6,0.5c-1.7,1.6-4.1,1.5-5.8-0.1l-18-18.2c-1.1-1.1-2.7-1.1-3.8-0.1L31,24.4L31,24.4z"/>
	</g>
</g>
</svg>
