<svg width="25" height="25" viewBox="0 0 25 25" fill="none" xmlns="http://www.w3.org/2000/svg">
  <path
    d="M2.95239 19.5V17.5H22.9524V19.5H2.95239ZM3.95239 16.5V15.5C3.95239 13.3667 4.60656 11.4833 5.91489 9.85C7.22323 8.21667 8.90239 7.18333 10.9524 6.75V6.5C10.9524 5.95 11.1482 5.47917 11.5399 5.0875C11.9316 4.69583 12.4024 4.5 12.9524 4.5C13.5024 4.5 13.9732 4.69583 14.3649 5.0875C14.7566 5.47917 14.9524 5.95 14.9524 6.5V6.75C17.0191 7.18333 18.7024 8.21667 20.0024 9.85C21.3024 11.4833 21.9524 13.3667 21.9524 15.5V16.5H3.95239ZM6.00239 14.5H19.9024C19.6691 12.7667 18.8941 11.3333 17.5774 10.2C16.2607 9.06667 14.7191 8.5 12.9524 8.5C11.1857 8.5 9.64823 9.06667 8.33989 10.2C7.03156 11.3333 6.25239 12.7667 6.00239 14.5Z"
    fill="currentColor" />
</svg>